<?xml version="1.0" standalone="no"?>
<!DOCTYPE svg PUBLIC "-//W3C//DTD SVG 20010904//EN"
 "http://www.w3.org/TR/2001/REC-SVG-20010904/DTD/svg10.dtd">
<svg version="1.0" xmlns="http://www.w3.org/2000/svg"
 width="16.000000pt" height="16.000000pt" viewBox="0 0 16.000000 16.000000"
 preserveAspectRatio="xMidYMid meet">
<metadata>
Created by potrace 1.11, written by Peter Selinger 2001-2013
</metadata>
<g transform="translate(0.000000,16.000000) scale(0.007692,-0.007692)"
fill="#000000" stroke="none">
<path d="M1835 1659 c-71 -3 -181 -7 -243 -8 -111 -1 -113 -1 -102 -22 16 -29
6 -35 -18 -11 -19 19 -36 21 -344 24 -178 1 -480 3 -673 3 -192 0 -367 4 -387
9 l-38 8 15 -48 c20 -70 35 -203 35 -315 0 -53 3 -123 6 -155 l6 -59 97 0 c84
1 96 3 95 18 -1 9 2 17 7 17 5 0 15 12 22 28 17 32 5 75 -31 117 -13 15 -32
47 -43 72 l-19 46 26 34 c14 18 42 44 62 57 20 13 45 33 54 45 10 12 30 21 45
21 15 0 53 5 86 12 53 11 64 10 120 -10 34 -12 68 -22 75 -22 15 0 144 -126
160 -156 7 -12 7 -26 1 -35 -13 -22 -11 -49 5 -49 8 0 17 -9 21 -19 4 -13 12
-18 21 -14 12 4 14 0 9 -18 -5 -19 0 -30 20 -47 15 -13 31 -37 37 -53 7 -20
15 -28 25 -25 10 4 13 1 9 -12 -4 -11 1 -22 14 -30 39 -24 52 44 25 132 -17
57 -20 149 -5 177 8 15 7 19 -4 19 -8 0 -18 -4 -21 -10 -3 -5 -13 -10 -21 -10
-8 0 -12 5 -9 10 3 6 2 10 -4 10 -24 0 49 56 94 73 130 47 139 48 186 32 24
-9 61 -27 81 -40 21 -14 45 -25 54 -25 11 0 14 -5 10 -16 -3 -9 -6 -18 -6 -20
0 -2 -6 -4 -13 -4 -9 0 -12 -16 -11 -53 1 -53 1 -53 -28 -49 -16 2 -33 13 -39
24 -7 13 -14 16 -22 9 -15 -12 -104 -6 -122 9 -10 9 -18 7 -34 -9 -12 -12 -27
-21 -34 -21 -7 0 -18 -5 -25 -12 -9 -9 -5 -16 18 -30 44 -26 66 -23 80 12 14
34 25 38 39 13 9 -16 12 -16 20 -3 8 12 14 6 27 -25 9 -22 16 -55 16 -74 -1
-18 2 -39 5 -45 12 -18 14 -48 3 -41 -5 3 -10 13 -10 20 0 8 -12 17 -27 21
-16 3 -34 8 -42 10 -15 5 -40 -23 -41 -47 0 -32 -25 -70 -42 -65 -10 2 -18 3
-18 2 0 -11 41 -46 70 -61 19 -10 47 -27 61 -39 15 -12 35 -26 45 -32 18 -11
17 -12 -8 -24 -15 -7 -25 -17 -22 -21 7 -12 -32 -52 -53 -54 -10 0 -23 -4 -29
-7 -12 -8 -85 14 -128 39 -20 11 -31 13 -34 5 -2 -6 -10 -8 -18 -5 -7 3 -11 9
-8 14 3 5 -7 9 -21 9 -17 0 -24 -4 -19 -11 11 -19 -18 -29 -31 -12 -25 34 -25
-35 0 -153 26 -124 31 -174 16 -174 -5 0 -11 -14 -15 -31 -3 -17 -10 -28 -15
-24 -5 3 -12 1 -16 -5 -3 -5 -20 -10 -37 -10 -21 0 -31 6 -35 20 -3 11 -11 20
-18 20 -16 0 -18 6 -40 127 -21 112 -33 132 -68 116 -20 -9 -30 -8 -55 8 -21
12 -30 24 -26 34 7 17 -11 21 -22 4 -4 -7 -20 -8 -41 -4 l-36 6 32 -55 c38
-67 71 -196 51 -196 -5 0 -10 -8 -10 -19 0 -24 -22 -42 -57 -46 -38 -5 -63 3
-63 22 0 8 -6 13 -12 11 -9 -3 -14 -30 -16 -75 -3 -84 -6 -83 134 -83 l92 0 3
33 c2 17 2 90 -1 162 -6 154 -5 159 26 174 31 14 34 14 34 0 0 -5 -4 -8 -9 -5
-5 3 -11 0 -14 -7 -9 -24 -8 -335 1 -341 4 -2 54 -6 111 -7 75 -2 105 1 111
11 4 7 12 10 17 7 5 -3 56 -7 114 -8 95 -2 105 0 114 18 11 21 37 20 29 -1 -6
-16 110 -38 196 -38 100 0 265 14 278 24 8 8 12 52 12 159 0 93 4 149 10 149
6 0 10 -6 10 -12 1 -7 2 -78 3 -158 l2 -145 108 -3 107 -3 0 48 c0 26 4 59 8
73 5 19 8 9 12 -40 l5 -65 45 0 c53 0 50 -20 20 185 -25 173 -24 160 -12 237
13 81 -3 136 -42 141 -15 2 -24 7 -21 12 3 5 19 7 34 4 28 -6 28 -5 26 35 -3
50 -6 54 -50 57 -24 2 -37 -2 -44 -14 -8 -14 -13 -15 -30 -4 -18 10 -21 10
-21 -3 0 -8 -4 -15 -10 -15 -5 0 -10 8 -10 17 0 9 -20 42 -44 73 -25 31 -48
72 -53 90 -14 55 -35 51 -32 -6 2 -37 9 -54 26 -67 13 -11 30 -34 37 -52 13
-30 12 -40 -6 -92 -23 -64 -35 -83 -52 -83 -6 0 -4 5 4 11 13 9 13 10 0 6 -8
-2 -14 -11 -14 -20 1 -9 -4 -13 -11 -10 -7 2 -26 -2 -42 -11 -38 -19 -54 -8
-62 40 -4 25 -12 39 -21 39 -22 0 -27 15 -22 62 3 36 8 42 30 46 l27 4 -26 2
c-19 1 -30 9 -39 31 -10 23 -17 29 -31 25 -13 -4 -19 -1 -19 9 0 9 -4 16 -10
16 -20 0 -9 16 34 47 38 29 42 37 42 73 l-1 41 93 -3 c86 -3 92 -2 93 17 0 19
1 19 9 -2 9 -22 18 -26 79 -38 32 -7 44 -15 120 -82 20 -18 38 -33 41 -33 16
0 28 46 31 121 l4 84 -113 1 c-62 1 -115 4 -119 8 -6 6 1 7 146 9 l85 2 13 85
c6 47 12 91 13 98 0 9 -32 12 -127 12 -69 0 -123 3 -119 7 4 4 53 8 109 9 153
2 145 0 152 34 8 38 -8 61 -44 58 -14 -1 -84 -5 -156 -9z m-895 -292 c0 -2
-16 -19 -36 -38 -26 -24 -33 -28 -25 -12 12 23 61 64 61 50z m388 -158 c-7
-20 -14 -27 -20 -21 -6 6 -6 17 1 31 18 32 31 25 19 -10z m-1075 -96 c-20 -15
-89 -17 -98 -4 -5 9 39 17 93 16 20 0 21 -1 5 -12z m1707 -133 c0 -11 -4 -20
-10 -20 -5 0 -10 2 -10 4 0 2 -3 11 -6 20 -4 11 -1 16 10 16 9 0 16 -8 16 -20z
m-533 -30 c6 -17 17 -29 23 -28 7 2 16 -7 21 -19 5 -14 5 -23 -1 -23 -6 0 -7
-19 -4 -44 4 -27 2 -46 -5 -50 -6 -4 -11 -4 -11 1 0 4 -13 8 -29 9 -19 1 -28
-3 -25 -11 3 -8 -4 -10 -23 -8 -16 3 -37 -3 -48 -11 -18 -15 -19 -17 -3 -26 9
-6 23 -17 31 -24 10 -10 19 -11 33 -4 16 9 17 8 7 -3 -7 -7 -13 -21 -13 -32 0
-10 -3 -16 -7 -14 -12 7 -13 -60 -3 -132 9 -64 0 -108 -21 -96 -5 4 -9 2 -9
-4 0 -6 -10 -19 -22 -30 -17 -17 -24 -18 -37 -8 -12 10 -13 9 -7 -3 4 -8 -6 1
-24 20 -32 34 -32 36 -26 105 10 115 21 189 29 203 6 8 1 12 -17 12 -14 0 -26
5 -26 10 0 6 7 10 15 10 8 0 15 5 15 11 0 5 5 7 10 4 6 -3 10 4 10 16 0 12 3
20 6 17 3 -4 24 2 47 13 23 10 53 19 67 19 17 0 21 3 13 11 -6 6 -36 11 -67
11 -30 1 -53 5 -50 9 3 5 13 9 23 9 10 0 26 9 36 20 10 11 21 17 25 15 4 -3
15 13 24 35 19 48 28 50 43 10z m466 -87 c-2 -13 2 -23 7 -23 6 0 10 -5 10
-10 0 -7 -6 -7 -19 0 -12 6 -17 17 -14 29 4 15 -1 20 -24 24 -22 4 -21 5 7 3
30 -1 35 -4 33 -23z m-40 -45 c-7 -13 -23 -9 -29 7 -4 8 0 23 7 31 12 15 14
14 20 -7 3 -13 4 -27 2 -31z m-49 27 c-4 -8 -8 -15 -10 -15 -2 0 -4 7 -4 15 0
8 4 15 10 15 5 0 7 -7 4 -15z m-833 -66 c15 -15 28 -19 50 -14 23 5 30 3 35
-12 3 -10 11 -29 19 -43 24 -48 37 -166 19 -178 -5 -4 -20 -20 -32 -36 -12
-16 -22 -24 -22 -19 0 5 -7 10 -15 10 -8 0 -15 -4 -15 -9 0 -17 -18 -7 -23 13
-3 12 -10 18 -16 15 -14 -9 -31 27 -31 66 0 19 -7 58 -16 88 -24 85 -28 114
-16 106 6 -4 17 2 24 14 16 24 14 24 39 -1z m719 -69 c0 -5 -2 -10 -4 -10 -3
0 -8 5 -11 10 -3 6 -1 10 4 10 6 0 11 -4 11 -10z m186 -37 c-12 -12 -29 15
-21 34 7 17 8 16 18 -5 5 -12 7 -25 3 -29z m-146 27 c0 -5 -2 -10 -4 -10 -3 0
-8 5 -11 10 -3 6 -1 10 4 10 6 0 11 -4 11 -10z m-98 -19 c-6 -3 -34 -4 -64 -1
l-53 4 45 6 c48 6 88 1 72 -9z m-1037 -1 c3 -5 1 -10 -4 -10 -6 0 -11 5 -11
10 0 6 2 10 4 10 3 0 8 -4 11 -10z m584 -93 c1 -23 -3 -36 -9 -32 -5 3 -9 34
-9 68 1 50 3 56 9 32 4 -16 8 -47 9 -68z m741 6 c-7 -24 -8 -21 -9 22 0 38 2
45 9 28 5 -12 5 -34 0 -50z m-3 -85 c-2 -13 -4 -5 -4 17 -1 22 1 32 4 23 2
-10 2 -28 0 -40z"/>
<path d="M625 1348 c-4 -15 -3 -33 2 -42 7 -13 12 -13 32 -3 33 16 37 34 9 42
-13 4 -26 12 -30 18 -4 6 -10 -1 -13 -15z"/>
<path d="M434 1346 c-19 -15 -19 -15 1 -30 11 -8 25 -16 31 -16 15 0 25 26 18
45 -8 19 -25 19 -50 1z"/>
<path d="M718 1304 c-4 -28 -14 -67 -24 -87 -15 -31 -16 -42 -5 -77 12 -41 27
-51 37 -26 3 8 12 12 21 9 13 -5 14 -3 2 18 -8 13 -16 66 -19 119 -5 87 -6 91
-12 44z"/>
<path d="M788 1286 c-10 -7 -18 -18 -18 -25 0 -6 -4 -11 -10 -11 -5 0 -9 -17
-9 -37 1 -22 3 -29 6 -18 3 11 14 30 26 43 11 12 21 31 22 42 1 11 1 20 1 20
-1 0 -9 -7 -18 -14z"/>
<path d="M346 1249 c-9 -44 -8 -46 12 -51 17 -5 18 -1 12 34 -10 51 -16 56
-24 17z"/>
<path d="M522 1208 c-6 -6 -12 -28 -12 -48 0 -20 -7 -45 -15 -56 -17 -23 -19
-34 -4 -34 6 0 29 -14 50 -31 37 -29 73 -33 49 -4 -8 10 -1 16 30 29 22 9 40
20 40 25 0 17 -22 24 -30 11 -15 -25 -32 25 -18 55 9 21 9 28 -3 39 -21 21
-72 29 -87 14z"/>
<path d="M641 1174 c-12 -27 -11 -28 4 -12 10 9 16 21 13 28 -2 7 -10 -1 -17
-16z"/>
<path d="M1095 1141 c-14 -27 -14 -31 0 -31 8 0 17 11 21 25 9 38 -2 41 -21 6z"/>
<path d="M1485 1150 c-3 -5 -1 -10 4 -10 6 0 11 5 11 10 0 6 -2 10 -4 10 -3 0
-8 -4 -11 -10z"/>
<path d="M1960 1116 c0 -8 5 -18 10 -21 6 -3 10 3 10 14 0 12 -4 21 -10 21 -5
0 -10 -6 -10 -14z"/>
<path d="M675 1101 c-3 -5 -1 -12 5 -16 5 -3 10 1 10 9 0 18 -6 21 -15 7z"/>
<path d="M91 1044 c0 -11 3 -14 6 -6 3 7 2 16 -1 19 -3 4 -6 -2 -5 -13z"/>
<path d="M606 1036 c3 -9 11 -16 16 -16 13 0 5 23 -10 28 -7 2 -10 -2 -6 -12z"/>
<path d="M804 1027 c-9 -24 1 -62 18 -69 10 -4 20 -20 24 -35 4 -15 14 -37 22
-48 13 -18 14 -18 8 -2 -3 11 4 40 19 69 30 60 33 100 8 96 -10 -2 -21 -7 -25
-13 -5 -7 -14 -6 -28 3 -25 15 -39 15 -46 -1z"/>
<path d="M185 1012 c-3 -4 -27 -7 -52 -7 l-46 0 -5 -93 c-3 -74 -1 -91 10 -88
47 15 68 16 68 2 0 -7 9 -16 20 -19 11 -3 18 -2 15 2 -2 4 -1 21 4 36 4 16 4
48 1 71 -4 28 -2 48 7 60 7 10 13 21 13 25 0 10 -27 19 -35 11z m-5 -45 c0
-21 -4 -23 -37 -19 -35 5 -36 6 -15 15 12 6 22 14 22 19 0 4 7 8 15 8 9 0 15
-9 15 -23z"/>
<path d="M237 1003 c-15 -14 -6 -31 18 -35 21 -4 25 -1 25 18 0 23 -27 34 -43
17z"/>
<path d="M1535 1000 c3 -5 10 -10 16 -10 5 0 9 5 9 10 0 6 -7 10 -16 10 -8 0
-12 -4 -9 -10z"/>
<path d="M235 939 c-11 -17 1 -21 15 -4 8 9 8 15 2 15 -6 0 -14 -5 -17 -11z"/>
<path d="M82 758 c2 -24 9 -43 17 -46 9 -3 11 0 6 8 -5 9 -4 11 3 6 7 -4 12
-14 12 -22 0 -8 -4 -12 -10 -9 -5 3 -10 0 -10 -7 0 -10 -2 -10 -9 1 -12 19
-18 -3 -26 -99 -3 -41 -14 -116 -24 -166 l-17 -91 41 -1 c23 0 47 3 54 8 9 5
12 46 12 149 -1 79 -2 146 -3 149 -1 4 3 16 9 28 16 29 28 136 13 111 -6 -9
-15 -15 -21 -12 -5 4 -9 1 -9 -6 0 -7 -3 -9 -7 -6 -3 4 2 16 12 27 18 20 17
20 -14 20 -32 0 -32 -1 -29 -42z"/>
<path d="M181 767 c-16 -41 -22 -113 -24 -280 l-2 -147 111 0 c129 0 118 -12
123 133 4 139 -29 206 -127 254 -30 14 -57 36 -62 47 -8 20 -9 20 -19 -7z"/>
<path d="M1805 319 c-22 -3 19 -7 94 -8 74 0 131 2 127 6 -9 9 -166 10 -221 2z"/>
</g>
</svg>
